<?xml version="1.0" encoding="utf-8"?>
<!-- Generator: Adobe Illustrator 22.0.0, SVG Export Plug-In . SVG Version: 6.00 Build 0)  -->
<svg version="1.1" xmlns="http://www.w3.org/2000/svg" xmlns:xlink="http://www.w3.org/1999/xlink" x="0px" y="0px"
	 viewBox="0 0 1024 1024" style="enable-background:new 0 0 1024 1024;" xml:space="preserve">
<style type="text/css">
	.st0{fill:#FFFFFF;}
	.st1{fill:#156F43;}
</style>
<g id="Capa_2">
	<circle class="st0" cx="547.9" cy="503.2" r="396.5"/>
</g>
<g id="Capa_1">
	<g>
		<g transform="translate(0.000000,1024.000000) scale(0.100000,-0.100000)">
			<path class="st1" d="M5276.6,8737.9c-621.1-48.8-1125.1-210.3-1620.2-520.9c-252.9-157.9-438.3-306.1-636.2-509.3
				c-312.3-320.3-558.1-682.3-724.1-1068.3c-99.4-232.5-204.1-603.4-243.1-863.4c-80.7-543-45.3-1002.7,123.3-1578.5
				c150.8-515.5,423.3-972.5,840.3-1408.2c299.9-314.1,741.8-609.6,1179.2-788.8c395.7-161.5,860.7-248.4,1331-248.4
				c199.6,0,255.5,3.5,505.8,34.6c424.1,50.6,852.7,197.9,1260,432.1c173,99.4,395.7,255.5,535.9,377.1l87,75.4l-217.4,217.4
				l-217.4,216.5l-110-94.1c-257.3-221.8-547.5-385.1-882.9-497.8c-350.5-118-628.2-165.9-961-165.9
				c-342.5-0.9-598.9,44.4-979.6,171.3c-298.1,98.5-626.4,281.3-839.4,466.7c-374.4,324.8-451.6,409.9-627.3,690.3
				c-147.3,235.1-308.8,572.3-362,754.2c-150,520-158.8,1023.1-24.8,1543.9c35.5,139.3,49.7,179.2,126,354.9
				c105.6,241.4,252,496,396.6,690.3c102.9,138.4,149.1,188.1,291,315.9c207.6,185.4,291.9,254.7,386.9,317.7
				c236,157.9,417.9,246.7,673.5,331c310.6,102.9,500.4,142,768.4,159.7c407.3,27.5,797.7-31.9,1224.5-184.6
				c281.3-101.2,577.6-273.3,802.1-467.6l110-94.9l215.6,215.6l215.6,215.6l-19.5,21.3c-71,75.4-325.6,265.3-516.4,384.2
				c-337.2,210.3-771.1,378.9-1162.4,450.8C5945.6,8731.7,5517.9,8757.5,5276.6,8737.9z"/>
			<path class="st1" d="M3824.9,7042.3c-157.9-20.4-247.6-86.1-297.3-219.2c-17.7-49.7-18.6-63.9-24.8-818.1
				c-2.7-422.4-6.2-1022.2-7.1-1332.8l-0.9-565.2l100.3-175.7c55-96.7,143.7-252.9,196.1-346.1c52.4-94.1,98.5-171.3,101.2-171.3
				c3.5,0,94.9,155.3,204.1,345.2l197,345.2v1307.9c0,1398.4,0,1374.5-43.5,1461.4c-10.6,19.5-30.2,48.8-44.4,65.7
				C4137.3,7016.5,3971.3,7061.8,3824.9,7042.3z M4052.1,6966.8c63-20.4,126.9-78.1,153.5-138.4c20.4-45.3,21.3-56.8,24-275.1
				l2.7-228.9h-333.6h-333.6l2.7,228.9c2.7,215.6,3.5,230.7,23.1,272.4c53.2,116.2,158.8,166.8,330.1,160.6
				C3969.6,6984.6,4025.5,6976.6,4052.1,6966.8z M4249.1,6178v-84.3h-350.5h-350.5v84.3v84.3h350.5h350.5V6178z M4100.9,6031.6h150
				l-1.8-676.1c-0.9-372.7-3.5-790.6-6.2-929.9l-5.3-252.9l-345.2,2.7l-346.1,2.7l1.8,923.7c0,508.4,2.7,926.4,3.5,929
				c1.8,2.7,93.2,4.4,202.3,3.5C3862.2,6033.4,4019.3,6032.5,4100.9,6031.6z M4240.2,4106.1c0-4.4-15.1-33.7-33.7-63.9
				c-18.6-31.1-91.4-155.3-161.5-277.7c-69.2-121.6-132.2-230.7-139.3-242.2c-12.4-20.4-17.7-11.5-153.5,226.3
				c-77.2,135.8-154.4,270.6-172.1,299c-17.7,29.3-31.9,55.9-31.9,60.3c0,3.5,156.2,7.1,346.1,7.1
				C4115.1,4115,4240.2,4111.4,4240.2,4106.1z"/>
			<path class="st1" d="M6659,6721.9c-2.7-177.5-6.2-993.8-8-1815.5l-1.8-1492.5h401.1h402l-5.3,1803.9
				c-2.7,991.1-6.2,1808.4-8.9,1814.6c-2.7,8-87.8,10.6-388.6,10.6h-385.1L6659,6721.9z M7385.7,6927.8V6879l-143.7-2.7l-144.6-1.8
				v-31.1v-31.1l144.6-1.8l143.7-2.7v-48.8v-48.8l-143.7-2.7l-144.6-1.8v-35.5V6635h47c24.8,0,91.4-2.7,146.4-6.2l99.4-5.3v-70.1
				v-69.2h-146.4h-146.4v-35.5v-35.5h146.4h146.4v-75.4v-75.4h-146.4h-146.4v-35.5v-35.5l144.6-1.8l143.7-2.7l2.7-72.8l2.7-73.6
				h-147.3h-146.4v-30.2c0-19.5,5.3-31.9,14.2-35.5c8-2.7,73.6-5.3,146.4-5.3h132.2v-62.1v-62.1h-78.1c-43.5,0-109.1-2.7-146.4-5.3
				l-68.3-6.2V5800v-34.6h146.4h146.4v-79.9v-79.9h-146.4h-146.4v-34.6v-33.7l60.3-5.3c32.8-3.5,98.5-6.2,146.4-6.2h86.1v-66.5
				v-66.5h-146.4h-146.4v-35.5v-35.5h92.3c49.7,0,116.2-2.7,146.4-5.3l54.1-6.2V5233v-77.2l-32.8-6.2c-18.6-2.7-84.3-5.3-146.4-5.3
				h-113.6v-35.5v-35.5h146.4h146.4v-66.5v-66.5h-51.5c-29.3,0-94.9-2.7-146.4-6.2l-94.9-5.3v-34.6v-33.7h146.4h146.4v-79.9v-79.9
				l-143.7-1.8l-144.6-2.7v-35.5v-35.5l144.6-2.7l143.7-1.8v-62.1c0-58.6-0.9-62.1-19.5-63c-11.5-0.9-34.6-2.7-51.5-3.5
				c-16.9-1.8-73.6-3.5-126-3.5l-95.8-0.9v-31.1v-31.1h146.4h146.4v-75.4v-75.4h-146.4h-146.4v-35.5c0-22.2,4.4-35.5,11.5-36.4
				c49.7-2.7,95.8-4.4,181.9-6.2l99.4-1.8v-71v-71l-143.7-1.8l-144.6-2.7l-2.7-32.8l-2.7-33.7h146.4h147.3v-75.4V3831h-146.4h-146.4
				v-35.5v-35.5h146.4h146.4v-53.2v-53.2h-146.4h-146.4v-31.1v-31.1h146.4h146.4l1.8-32.8c3.5-85.2,8-77.2-50.6-82.5
				c-43.5-3.5-491.6-4.4-605.2-0.9l-29.3,0.9v1480.1c0,813.7,2.7,1601.6,6.2,1752.5l5.3,272.4l333.6-1.8l333.6-2.7V6927.8z"/>
			<path class="st1" d="M4391,6296.9v-580.3l1087.9-1087l1087.9-1087l-6.2,581.2l-6.2,581.2l-1079,1082.5
				C4881.7,6383,4394.6,6871.9,4393.7,6873.7C4391.9,6875.4,4391,6616.3,4391,6296.9z"/>
		</g>
	</g>
</g>
</svg>
